<svg width="50" height="50" viewBox="0 0 50 50" fill="none" xmlns="http://www.w3.org/2000/svg">
    <rect width="50" height="50" rx="4" fill="#2f3343"/>
    <path d="M36.0625 24.0625H13.9375C13.4197 24.0625 13 24.4822 13 25C13 25.5178 13.4197 25.9375 13.9375 25.9375H36.0625C36.5803 25.9375 37 25.5178 37 25C37 24.4822 36.5803 24.0625 36.0625 24.0625Z" fill="#E0E0E0"/>
    <path d="M36.0625 16.5625H13.9375C13.4197 16.5625 13 16.9822 13 17.5C13 18.0178 13.4197 18.4375 13.9375 18.4375H36.0625C36.5803 18.4375 37 18.0178 37 17.5C37 16.9822 36.5803 16.5625 36.0625 16.5625Z" fill="#E0E0E0"/>
    <path d="M36.0625 31.5625H13.9375C13.4197 31.5625 13 31.9822 13 32.5C13 33.0178 13.4197 33.4375 13.9375 33.4375H36.0625C36.5803 33.4375 37 33.0178 37 32.5C37 31.9822 36.5803 31.5625 36.0625 31.5625Z" fill="#E0E0E0"/>
</svg>
