<svg width="16" height="16" viewBox="0 0 16 16" fill="none" xmlns="http://www.w3.org/2000/svg">
    <path d="M15.6064 2.27401C15.7308 2.15073 15.8296 2.0041 15.8971 1.84255C15.9647 1.68099 15.9996 1.50769 16 1.33258C16.0004 1.15748 15.9662 0.984026 15.8993 0.822178C15.8325 0.660329 15.7344 0.513274 15.6105 0.389457C15.4867 0.265639 15.3397 0.167497 15.1778 0.100663C15.016 0.0338297 14.8425 -0.000379562 14.6674 1.90735e-06C14.4923 0.000382423 14.319 0.035346 14.1575 0.102883C13.9959 0.170421 13.8493 0.269202 13.726 0.393557L7.99795 6.11493L2.26991 0.393557C2.02054 0.144194 1.68233 0.00410271 1.32968 0.00410271C0.977027 0.00410271 0.638818 0.144194 0.389455 0.393557C0.140091 0.64292 2.62747e-09 0.98113 0 1.33378C-2.62747e-09 1.68644 0.140091 2.02464 0.389455 2.27401L6.11083 8.00205L0.389455 13.7301C0.140091 13.9795 -6.95163e-09 14.3177 0 14.6703C6.95164e-09 15.023 0.140091 15.3612 0.389455 15.6105C0.638818 15.8599 0.977027 16 1.32968 16C1.68233 16 2.02054 15.8599 2.26991 15.6105L7.99795 9.88917L13.726 15.6105C13.9754 15.8599 14.3136 16 14.6662 16C15.0189 16 15.3571 15.8599 15.6064 15.6105C15.8558 15.3612 15.9959 15.023 15.9959 14.6703C15.9959 14.3177 15.8558 13.9795 15.6064 13.7301L9.88507 8.00205L15.6064 2.27401Z" fill="#8f44fd"/>
</svg>
